PathFileType	4	(X/Y/Z)	C:\Users\°ÂÌØÂü\Desktop\20210112\bx_n_0_1802-Unnamed.trc
DataRate	CameraRate	NumFrames	NumMarkers	Units	OrigDataRate	OrigDataStartFrame	OrigNumFrames
50.00	50.00	       5	0	mm	50.00	319	       425
Frame#	Time	
		

319	6.360	-636.22504	268.79510	473.61658	-569.99884	83.34470	552.83063	-813.72858	295.17493	715.70349	-573.82751	110.24060	986.52802	-676.91559	236.31415	750.05457	-695.92456	289.28207	644.41809	-616.64056	264.00769	573.38922	-992.37958	106.51624	880.02704	-545.45557	20.15769	480.82886	-582.90997	265.52597	534.33710	-531.75427	218.51186	491.05026	-693.72052	-0.91348	760.91986	-704.60815	79.99805	207.12741	-649.01727	-63.27455	167.79871	-543.55798	157.43275	550.93292	-753.21796	222.65038	206.99608	-608.73602	-69.55804	167.76373	-882.57263	296.24466	144.72812				-596.95300	24.73840	165.74742	-552.59113	-34.14837	168.84650	-517.82251	-72.76317	143.29663	-587.00690	212.86833	174.03415	-654.58398	291.62811	157.03325	-619.39282	300.95074	158.03633	-551.97882	250.69777	166.01959	-528.21887	304.07733	146.44493	-434.64496	126.55508	1475.51807	-507.80753	297.24066	1185.84058	-787.60626	170.20490	189.69638	-508.06616	-53.43817	1192.16418	-788.31049	49.64237	177.86708	-697.33820	147.50807	207.59328	-653.21558	-36.65343	468.58240	-747.22235	-9.14960	210.26941	-876.40295	-78.30941	141.21120	-801.91974	-70.11125	738.71576	-590.12537	-28.95320	533.20801	-671.74451	166.17337	153.59248	-670.14166	55.77163	152.15900				-714.93384	-60.20638	663.64661	-603.66388	-30.09403	572.17749	
320	6.380	-636.97614	268.56567	473.52618	-570.40015	82.73431	553.16547	-812.93884	294.80957	719.70856	-573.16058	108.90801	995.04926	-675.18030	236.71854	751.87878	-695.85211	289.09164	646.88336	-617.69452	263.26526	574.27637	-990.61908	105.96120	885.45270	-545.88904	19.34165	481.57010	-583.92462	266.20642	535.37537	-532.36450	218.49133	491.83081	-692.29163	-1.38063	763.11884	-704.42310	79.96954	207.04242	-649.27527	-63.50619	167.58881	-544.51941	158.18454	551.04950	-753.75562	222.92909	206.99306	-608.99158	-69.61758	166.92485	-882.43237	296.21704	144.85992				-596.92334	24.52572	165.85695	-552.71094	-34.25053	168.53732	-517.92480	-72.89446	143.28084	-587.00690	212.86833	174.03415	-654.46576	291.85291	156.95604	-619.40442	301.01932	157.89276	-551.96753	250.75970	166.09062	-528.13885	304.07614	146.58961	-437.13763	126.19979	1484.27466	-508.67847	296.64420	1194.22888	-787.64496	170.21634	189.62631	-508.68967	-53.71285	1200.32019	-788.31006	49.64003	177.85211	-697.45642	147.55577	207.56740	-654.33710	-36.91942	469.13101	-747.12268	-9.19873	210.53844	-876.37842	-78.57867	141.41795	-800.50220	-70.64079	742.67798	-591.15619	-29.57849	533.70471	-671.21271	165.60167	154.40985	-670.14166	55.77163	152.15900				-714.81689	-60.58614	666.13733	-604.31042	-30.47183	572.99542	
321	6.400	-638.12335	268.77414	474.08145	-570.93890	82.76867	554.15417	-812.10638	294.13898	723.80060	-572.14142	109.45798	1002.01630	-673.63733	236.84303	754.51160	-695.97375	289.50903	648.97644	-618.20294	263.99792	575.99200	-988.77271	105.07148	890.67212	-547.84497	19.89812	481.91516	-585.18243	265.86716	535.63495	-533.93475	219.45737	492.75598	-690.32263	-2.03694	765.38501	-704.49060	79.81224	207.38248	-649.07452	-63.70184	167.53525	-545.24969	158.37608	551.77771	-753.96948	222.89755	207.12370	-608.98151	-70.07363	166.38046	-882.59528	296.16107	144.73486				-596.91254	24.59237	165.78912	-552.53931	-34.47517	168.56511	-517.84668	-72.83995	143.21233	-587.01599	213.10793	174.05565	-654.48450	291.83630	156.80154	-619.34485	301.21304	157.99481	-551.92969	250.80222	166.11867	-528.11072	304.29047	146.63930	-439.14709	126.01408	1493.06335	-509.49921	296.04138	1202.44946	-787.62213	170.16975	189.46242	-509.30692	-53.85345	1208.32458	-788.18774	49.45850	177.79434	-696.64136	147.91319	207.55609	-655.37872	-37.52959	469.97125	-747.14075	-9.08898	209.92439	-875.92981	-78.86195	141.39522	-798.89789	-70.98162	746.74921	-592.25659	-30.03326	534.57361	-671.35547	165.68105	154.25887	-670.14166	55.77163	152.15900				-714.18542	-61.01643	668.65607	-605.56372	-31.02443	574.50500	
322	6.420	-639.51306	269.26627	474.86090	-572.55139	81.89312	554.38501	-811.27808	293.91031	728.07172	-571.42249	109.37743	1009.76245	-671.98035	237.48933	756.78693	-696.24219	289.26071	651.61456	-619.57764	264.63004	577.83795	-987.10181	104.41087	896.12427	-548.88507	19.66229	482.43063	-586.46216	266.35101	536.27551	-535.10559	219.76451	492.72485	-688.69946	-2.53251	767.70605	-704.79553	79.50248	207.35475	-648.99176	-64.03163	167.06570	-546.34296	159.22165	552.42328	-754.08087	222.94499	206.90379	-608.85248	-70.92912	165.88573	-882.44165	296.28186	144.84575				-596.91711	24.54869	165.80067	-552.58081	-34.50621	168.55478	-517.93573	-72.56588	143.30354	-587.05475	213.04173	174.08342	-654.47382	291.96759	156.77171	-619.29779	301.08713	157.67319	-551.98651	250.84978	166.23907	-528.14569	304.17987	146.55627	-441.99243	125.05399	1501.76733	-510.19992	295.51917	1211.11304	-787.64545	170.27281	189.57367	-510.26944	-54.74120	1216.41284	-788.18628	49.15300	177.96898	-696.49628	147.83066	207.86940	-656.46661	-37.92367	470.19107	-747.37054	-9.53800	210.13878	-875.99792	-78.69180	141.55168	-797.16956	-70.82214	750.55695	-593.45575	-29.76924	535.12708	-671.21271	165.60167	154.40985	-670.14166	55.77163	152.15900				-713.66931	-61.06127	670.67090	-605.86237	-30.84486	574.80914	
323	6.440	-640.51477	269.27274	474.92242	-573.43756	81.27308	554.95337	-809.89594	293.24152	732.22382	-570.67682	108.49300	1017.72955	-670.49738	237.77376	758.56378	-696.43054	289.30630	653.93781	-620.45917	264.64725	578.36963	-985.35028	103.68573	901.28668	-550.63757	18.77664	482.99158	-587.36487	267.18582	536.95190	-535.90662	220.80667	493.78445	-686.87231	-3.44140	769.64374	-704.82831	79.66949	207.72559	-649.22430	-64.52069	166.46852	-547.21863	160.16805	552.51617	-754.10028	223.02278	207.17314	-609.02136	-71.01977	165.19965	-882.54797	296.17053	144.80577				-596.78809	24.44501	165.73817	-552.61371	-34.65005	168.11987	-517.91864	-72.77723	143.13231	-587.07172	213.27780	174.11574	-654.42029	292.13831	156.57346	-619.32196	301.32010	157.53568	-552.00122	250.86583	166.20853	-528.21887	304.07733	146.44493	-444.48358	124.07702	1510.64392	-510.91260	294.94244	1219.52881	-787.45435	170.39581	189.44911	-510.20343	-55.50845	1224.56079	-788.14819	49.00606	177.82471	-696.78357	147.92552	207.99876	-657.94037	-37.20173	469.54901	-747.23627	-10.02116	210.30917	-876.07831	-78.80435	141.53267	-795.98450	-71.17205	754.28967	-594.92657	-30.09164	536.09137	-671.51923	165.76773	154.43272	-670.21381	55.89255	152.33861				-713.48163	-61.58032	673.27734	-607.25171	-31.27040	575.58728	
